# xmcd
#
# Track frame offsets:
#	150
#	21712
#	33642
#	49222
#	68802
#	84527
#	100404
#	116457
#	134022
#	150322
#	162065
#	178510
#	195495
#	208365
#	219970
#	233895
#	251212
#	266802
#	282257
#	302620
#	321252
#
# Disc length: 4558 seconds
#
# Revision: 1
# Processed by: cddbd v1.4PL0 Copyright (c) Steve Scherf et al.
# Submitted via: audiograbber 1.80
#
DISCID=3a11cc15
DTITLE=Various Artist - Hott Country 046
DYEAR=1900
DGENRE=
TTITLE0=Dixie Chicks - Cowboy Take Me Away
TTITLE1=Alecia Elliot - I'm Digging It
TTITLE2=Travis Tritt/George Thorogood - Move It On Over
TTITLE3=Julian Austin - Back In Your Life
TTITLE4=Reba McEntire - What Do You Say
TTITLE5=Randy Travis - A Man Ain't Made Of Stone
TTITLE6=Lonestar - Smile
TTITLE7=Brad Paisley - He Didn't Have To Be
TTITLE8=Kenny Chesney - She Thinks My Tractor's Sexy
TTITLE9=Sherrie Austin - Little Bird
TTITLE10=Chris LeDoux - Stampede
TTITLE11=Deryl Dodd - Sundown
TTITLE12=Shana Petrone - Something  Real
TTITLE13=Merle Haggard - That's The Way Love Goes
TTITLE14=Alan Jackson - Pop A Top
TTITLE15=Chely Wright - It Was
TTITLE16=John Berry - Power Windows
TTITLE17=Tara Lynn Hart - Stuff That Matters
TTITLE18=Tracy Byrd - Put Your Hand In Mine
TTITLE19=Faith Hill - Breathe
TTITLE20=Barbara Streisand/Vince Gill - If You Ever Leave
EXTD=
EXTT0=
EXTT1=
EXTT2=
EXTT3=
EXTT4=
EXTT5=
EXTT6=
EXTT7=
EXTT8=
EXTT9=
EXTT10=
EXTT11=
EXTT12=
EXTT13=
EXTT14=
EXTT15=
EXTT16=
EXTT17=
EXTT18=
EXTT19=
EXTT20=
PLAYORDER=
